<?xml version="1.0" encoding="UTF-8" standalone="no"?>
<svg
   xmlns:dc="http://purl.org/dc/elements/1.1/"
   xmlns:cc="http://creativecommons.org/ns#"
   xmlns:rdf="http://www.w3.org/1999/02/22-rdf-syntax-ns#"
   xmlns:svg="http://www.w3.org/2000/svg"
   xmlns="http://www.w3.org/2000/svg"
   xmlns:sodipodi="http://sodipodi.sourceforge.net/DTD/sodipodi-0.dtd"
   xmlns:inkscape="http://www.inkscape.org/namespaces/inkscape"
   viewBox="0 0 1000 382.67816"
   version="1.1"
   id="svg4"
   sodipodi:docname="logo-albelli.svg"
   width="1000"
   height="382.67816"
   inkscape:version="0.92.4 (5da689c313, 2019-01-14)">
  <metadata
     id="metadata10">
    <rdf:RDF>
      <cc:Work
         rdf:about="">
        <dc:format>image/svg+xml</dc:format>
        <dc:type
           rdf:resource="http://purl.org/dc/dcmitype/StillImage" />
        <dc:title></dc:title>
      </cc:Work>
    </rdf:RDF>
  </metadata>
  <defs
     id="defs8" />
  <sodipodi:namedview
     pagecolor="#ffffff"
     bordercolor="#111111"
     borderopacity="1"
     objecttolerance="10"
     gridtolerance="10"
     guidetolerance="10"
     inkscape:pageopacity="0"
     inkscape:pageshadow="2"
     inkscape:window-width="1920"
     inkscape:window-height="1017"
     id="namedview6"
     showgrid="false"
     fit-margin-top="0"
     fit-margin-left="0"
     fit-margin-right="0"
     fit-margin-bottom="0"
     inkscape:zoom="0.55201025"
     inkscape:cx="748.08819"
     inkscape:cy="72.687939"
     inkscape:window-x="1912"
     inkscape:window-y="-8"
     inkscape:window-maximized="1"
     inkscape:current-layer="svg4" />
  <path
     d="m 136.02783,115.16155 c -4.01209,0 -8.18049,-1.79052 -12.07416,-5.17261 L 60.987138,55.23131 c -2.05578,-1.79052 -2.240516,-4.61366 -0.449998,-6.86839 l 5.404711,-6.80681 c 0.814733,-1.02315 2.131569,-1.61051 3.60472,-1.61051 1.212625,0 2.392093,0.41684 3.239984,1.15578 L 131.91627,92.51482 138.07413,4.50945 C 138.27308,1.68631 140.70307,0 142.93885,0 l 9.06627,0.61578 c 1.29315,0.09 2.47735,0.68684 3.32998,1.68631 0.84789,0.98526 1.26473,2.23578 1.17947,3.51472 l -6.61734,93.87429 c -0.63473,9.1089 -6.3426,15.47045 -13.8694,15.47045 z m 48.47661,0 c -7.52681,0 -13.22994,-6.36155 -13.86941,-15.47045 L 164.01769,5.81681 c -0.09,-1.27894 0.32684,-2.52946 1.17947,-3.51472 0.85263,-0.99947 2.03683,-1.59631 3.32525,-1.68631 l 8.76785,-0.61105 c 2.55315,0 4.96892,1.69105 5.16787,4.50946 l 6.15786,88.00063 59.12972,-51.41344 a 4.9736603,4.9736603 0 0 1 3.23999,-1.15578 c 1.47315,0 2.78525,0.58736 3.59998,1.61051 l 5.40945,6.80681 c 1.79051,2.25947 1.60578,5.08261 -0.45,6.86839 l -62.96654,54.75763 c -3.88893,3.38209 -8.06681,5.17261 -12.07415,5.17261 z M 5.5189837,156.4003 c -2.5531457,0 -4.68945122,-1.98473 -4.86945036,-4.51419 L 0.03848365,143.15142 C -0.11783139,140.8209 1.5542659,138.17776 4.5479357,137.9646 L 92.60067,131.81147 41.154075,72.71017 a 5.0541863,5.0541863 0 0 1 -1.1321,-3.72314 4.4241893,4.4241893 0 0 1 1.591572,-3.11682 l 6.811546,-5.39998 c 1.018416,-0.80999 2.155253,-1.23631 3.292089,-1.23631 1.364204,0 2.638409,0.59684 3.581036,1.68631 l 54.786052,62.93338 c 4.83629,5.54682 6.37576,11.70942 4.22524,16.89624 -2.14104,5.16787 -7.56944,8.54048 -14.527821,9.03311 l -93.9263911,6.60787 z m 309.1579863,-0.009 -93.92639,-6.60787 c -6.96313,-0.49263 -12.39152,-3.86524 -14.52783,-9.03311 -2.15051,-5.18682 -0.61105,-11.34942 4.22525,-16.89624 L 265.22931,60.9207 c 0.94736,-1.08947 2.22631,-1.68631 3.58577,-1.68631 1.13684,0 2.27368,0.42632 3.28736,1.23631 l 6.81628,5.39998 a 4.4431366,4.4431366 0 0 1 1.59157,3.11682 c 0.12789,1.36895 -0.29842,2.76157 -1.1321,3.72314 l -51.44659,59.1013 88.04799,6.15313 c 2.99367,0.21316 4.67051,2.8563 4.50946,5.18682 l -0.60632,8.73469 a 4.8789239,4.8789239 0 0 1 -4.86945,4.51419 z m 671.53888,69.67387 a 4.8789239,4.8789239 0 0 1 -4.87892,-4.88366 v -22.7841 c 0,-2.69525 2.17893,-4.88366 4.87892,-4.88366 h 8.90522 c 2.69999,0 4.87892,2.18841 4.87892,4.88366 v 22.7841 a 4.8789239,4.8789239 0 0 1 -4.87892,4.88366 z M 51.688762,261.05085 c -1.136837,0 -2.273674,-0.43105 -3.29209,-1.23631 l -6.811546,-5.40471 a 4.4147156,4.4147156 0 0 1 -1.591571,-3.11209 5.0541863,5.0541863 0 0 1 1.132099,-3.72314 L 92.572249,188.4733 4.5195148,182.32017 c -2.9936698,-0.21315 -4.66576711,-2.86103 -4.50945207,-5.19155 l 0.6110497,-8.73469 c 0.19420959,-2.54368 2.32104157,-4.50946 4.86945037,-4.50946 l 94.2627052,6.61734 c 6.958382,0.48789 12.386782,3.86525 14.527822,9.03311 2.15051,5.18682 0.61105,11.34469 -4.22524,16.89624 l -54.786053,62.93338 a 4.6989248,4.6989248 0 0 1 -3.581035,1.68631 z m 217.097898,0 a 4.7178721,4.7178721 0 0 1 -3.58577,-1.68631 l -54.78132,-62.93338 c -4.83629,-5.55155 -6.37575,-11.70942 -4.22524,-16.89624 2.13631,-5.16786 7.5647,-8.54522 14.52783,-9.03311 l 93.95007,-6.6126 c 2.87999,0 5.00682,1.98473 5.18208,4.50472 l 0.60631,8.73469 c 0.16106,2.33052 -1.51578,4.9784 -4.50945,5.19155 l -88.048,6.15313 51.4466,59.1013 c 0.83368,0.96157 1.25999,2.3542 1.1321,3.72314 a 4.4241893,4.4241893 0 0 1 -1.59157,3.11209 l -6.81628,5.40471 c -1.01368,0.80526 -2.15526,1.23631 -3.28736,1.23631 z m -125.8715,59.23393 c -2.23578,0 -4.6705,-1.68631 -4.86945,-4.51419 l -6.15786,-88.00063 -59.129716,51.41817 c -0.909469,0.75789 -2.05578,1.16526 -3.239984,1.15105 -1.473151,0 -2.789987,-0.58737 -3.60472,-1.61052 l -5.404711,-6.81155 c -1.790517,-2.25472 -1.605782,-5.07787 0.449998,-6.86839 l 62.966533,-54.75289 c 3.89367,-3.38209 8.06207,-5.17261 12.07889,-5.17261 7.52207,0 13.22994,6.36155 13.86467,15.47046 l 6.61734,93.86954 c 0.0853,1.28368 -0.33158,2.5342 -1.17947,3.51946 -0.85736,0.99947 -2.03683,1.59631 -3.32998,1.68631 l -8.73943,0.60631 z m 34.31826,-0.01 -8.73943,-0.60632 a 4.7841876,4.7841876 0 0 1 -3.32525,-1.68631 4.8315557,4.8315557 0 0 1 -1.17947,-3.51945 l 6.61734,-93.86955 c 0.63947,-9.10891 6.33786,-15.47045 13.8694,-15.47045 4.00735,0 8.18523,1.79051 12.07416,5.1726 l 62.96654,54.7529 c 2.05578,1.79052 2.24051,4.61366 0.44999,6.86839 l -5.40944,6.81154 c -0.81474,1.02315 -2.12683,1.61052 -3.59999,1.61052 -1.21262,0 -2.39209,-0.41684 -3.23998,-1.15105 l -59.12972,-51.41817 -6.15786,88.00063 c -0.20368,2.82788 -2.63367,4.51419 -4.86945,4.51419 z m 340.02784,58.70813 c -2.69999,0 -4.87893,-2.2263 -4.87893,-4.87892 V 165.74604 c 0,-2.69051 2.17894,-4.88366 4.87893,-4.88366 h 8.90522 c 2.65262,0 4.87892,2.19315 4.87892,4.88366 v 208.35848 c 0,2.65262 -2.2263,4.87892 -4.87892,4.87892 z m 364.49825,0 c -2.69999,0 -4.87893,-2.2263 -4.87893,-4.87892 V 165.74604 c 0,-2.69051 2.17894,-4.88366 4.87893,-4.88366 h 8.90522 c 2.65262,0 4.87892,2.19315 4.87892,4.88366 v 208.35848 c 0,2.65262 -2.2263,4.87892 -4.87892,4.87892 z m 52.24712,0 c -2.69999,0 -4.9263,-2.2263 -4.9263,-4.87892 V 165.74604 c 0,-2.69051 2.22631,-4.88366 4.9263,-4.88366 h 8.85785 c 2.69999,0 4.87892,2.19315 4.87892,4.88366 v 208.35848 c 0,2.65262 -2.17893,4.87892 -4.87892,4.87892 z m 52.19975,0 c -2.69999,0 -4.87893,-2.2263 -4.87893,-4.87892 V 256.58403 c 0,-2.69525 2.17894,-4.8884 4.87893,-4.8884 h 8.90522 c 2.69998,0 4.87892,2.19315 4.87892,4.8884 v 117.52049 c 0,2.65262 -2.17894,4.87892 -4.87892,4.87892 z M 411.58282,266.63082 c -27.23671,0 -48.5524,21.45779 -48.5524,48.85556 0,26.78671 21.742,48.52871 48.5524,48.52871 30.36301,0 48.5524,-24.67883 48.5524,-48.52871 0,-27.39777 -21.31569,-48.85556 -48.5524,-48.85556 z m 0,116.04734 c -37.0893,0 -67.26284,-30.12617 -67.26284,-67.19178 0,-37.22667 30.17354,-67.51389 67.26284,-67.51389 24.67883,0 41.30506,13.32941 49.02608,21.27779 l 0.80526,0.86211 4.3105,-14.58467 c 0.7579,-2.67157 3.45788,-4.60419 6.34734,-4.60419 1.27894,0 3.17367,0.39789 4.87893,2.30209 1.1842,1.37368 1.84736,3.22104 1.84736,5.20103 v 115.67787 c 0,2.65262 -2.17894,4.87892 -4.87893,4.87892 h -8.90522 c -2.69999,0 -4.87892,-2.2263 -4.87892,-4.87892 v -12.26836 l -1.18421,1.23157 c -11.84205,12.07889 -29.98406,19.61043 -47.36819,19.61043 z m 220.2621,-116.04734 c -23.87357,0 -48.59977,18.27465 -48.59977,48.85556 0,27.21303 21.36306,48.52871 48.59977,48.52871 26.47882,0 48.88397,-22.21568 48.88397,-48.52871 0,-26.48356 -22.40515,-48.85556 -48.88397,-48.85556 z m 0,116.04734 c -21.83674,0 -39.50507,-10.84732 -48.74187,-21.03148 l -0.80526,-0.89999 -4.59472,14.06835 c -0.94736,2.79472 -3.69472,4.97366 -6.34733,4.97366 -3.78946,0 -6.77366,-2.9842 -6.77366,-6.77365 V 165.74131 c 0,-2.69052 2.22631,-4.87893 4.9263,-4.87893 h 8.85785 c 2.69999,0 4.87892,2.19315 4.87892,4.88366 V 268.8145 l 1.23158,-1.23631 c 11.79468,-12.08837 29.93669,-19.6057 47.36819,-19.6057 37.04193,0 67.21547,30.28722 67.21547,67.51389 0,37.06561 -30.17354,67.19178 -67.21547,67.19178 z M 784.51261,266.64977 c -20.27359,0 -38.65245,12.77046 -45.71031,31.77932 l -0.33158,0.94263 h 92.08377 l -0.37894,-0.94263 c -7.0105,-19.00886 -25.38936,-31.77932 -45.66294,-31.77932 z m 0,116.02839 c -18.28413,0 -35.43141,-7.19996 -48.22082,-20.32095 -12.78942,-13.07363 -19.56307,-30.36302 -19.13675,-48.65661 0.80526,-35.80562 30.69459,-65.28759 66.50494,-65.72337 l 0.85263,-0.005 c 35.66825,0 65.226,27.84302 67.26283,63.38338 0.0474,0.29842 0.0474,0.77684 0.0474,1.35946 0.0474,1.41158 -0.52105,2.74262 -1.51578,3.74683 -0.94737,1.00894 -2.32104,1.56315 -3.69472,1.56315 H 735.86547 l 0.0947,0.74842 c 1.75262,25.34672 23.06831,45.24136 48.5524,45.24136 17.19465,0 32.82616,-8.81048 41.73138,-23.58936 0.80525,-1.32631 2.2263,-2.13157 3.78945,-2.13157 1.0421,0 1.98947,0.33158 2.79472,0.99473 l 7.38944,5.96839 c 1.89473,1.61052 2.36841,4.35788 0.99473,6.44208 -12.45779,19.42092 -33.67874,30.97876 -56.69968,30.97876 z"
     id="path2"
     inkscape:connector-curvature="0"
     style="fill:#ff6a13;fill-rule:evenodd;stroke-width:4.73681927" />
</svg>
